<svg width="406" height="96" viewBox="0 0 406 96" fill="none" xmlns="http://www.w3.org/2000/svg">
<path d="M171.469 95.6106C164.815 95.6106 159.624 93.8094 155.894 90.207C152.165 86.5623 150.3 81.4555 150.3 74.8865C150.3 67.7665 152.61 62.363 157.229 58.6759C161.891 54.9888 168.63 53.0605 177.445 52.891L192.257 52.6367V49.1403C192.257 44.6479 191.473 41.3211 189.905 39.1596C188.336 36.9559 185.772 35.854 182.212 35.854C178.907 35.854 176.47 36.6168 174.902 38.1425C173.376 39.6258 172.423 42.1051 172.041 45.5803L153.415 44.6903C155.746 31.0861 165.599 24.2841 182.975 24.2841C191.663 24.2841 198.359 26.4243 203.064 30.7047C207.768 34.9852 210.12 41.0668 210.12 48.9496V73.9965C210.12 77.8531 210.544 80.5231 211.392 82.0064C212.282 83.4473 213.744 84.1678 215.778 84.1678C217.134 84.1678 218.448 84.0407 219.719 83.7864V93.4492C217.516 94.0001 215.63 94.4027 214.062 94.657C212.493 94.9537 210.565 95.102 208.277 95.102C203.784 95.102 200.457 94.0001 198.296 91.7963C196.177 89.5925 194.905 86.3504 194.482 82.07H194.1C191.6 86.5623 188.464 89.9528 184.692 92.2413C180.92 94.4875 176.512 95.6106 171.469 95.6106ZM192.257 62.4902L183.102 62.6173C178.907 62.8292 175.961 63.2742 174.266 63.9523C172.529 64.7151 171.194 65.8594 170.261 67.3851C169.371 68.9108 168.926 70.9451 168.926 73.4879C168.926 76.7512 169.668 79.1881 171.151 80.7986C172.677 82.3666 174.69 83.1507 177.19 83.1507C179.988 83.1507 182.552 82.3878 184.882 80.8621C187.171 79.3364 188.972 77.2386 190.286 74.5686C191.6 71.8563 192.257 68.9956 192.257 65.9865V62.4902Z" fill="#1E1E1E"/>
<path d="M269.18 80.6714C266.807 85.8842 263.776 89.6773 260.089 92.0506C256.445 94.4239 252.101 95.6106 247.057 95.6106C239.768 95.6106 234.174 93.3856 230.275 88.9356C226.376 84.4433 224.426 77.8743 224.426 69.2287V25.5555H242.29V64.143C242.29 70.161 243.307 74.6958 245.341 77.7472C247.375 80.7562 250.427 82.2607 254.495 82.2607C258.818 82.2607 262.293 80.4171 264.921 76.73C267.591 73.0005 268.926 68.2327 268.926 62.4266V25.5555H286.789V78.955C286.789 81.8793 286.831 84.634 286.916 87.2192C287.001 89.7621 287.128 92.1354 287.298 94.3392H270.261C270.006 91.2878 269.816 88.6178 269.689 86.3292C269.561 84.0407 269.498 82.1547 269.498 80.6714H269.18Z" fill="#1E1E1E"/>
<path d="M335.106 93.322C330.783 94.763 325.761 95.4834 320.039 95.4834C314.784 95.4834 310.737 94.0637 307.897 91.2242C305.058 88.3423 303.638 83.9983 303.638 78.1922V37.6339H294.929V25.5555H304.528L310.122 9.40849H321.311V25.5555H334.343V37.6339H321.311V73.3608C321.311 76.7088 321.946 79.1881 323.218 80.7986C324.489 82.3666 326.46 83.1507 329.13 83.1507C330.401 83.1507 332.393 82.854 335.106 82.2607V93.322Z" fill="#1E1E1E"/>
<path d="M360.791 39.2868C363.206 34.0316 366.237 30.2173 369.881 27.844C373.526 25.4707 377.87 24.2841 382.913 24.2841C390.203 24.2841 395.797 26.5302 399.696 31.0226C403.595 35.5149 405.545 42.0839 405.545 50.7295V94.3392H387.745V55.8152C387.745 49.7548 386.728 45.2201 384.693 42.211C382.659 39.202 379.586 37.6975 375.476 37.6975C371.153 37.6975 367.656 39.5623 364.986 43.2918C362.359 46.9789 361.045 51.7255 361.045 57.5316V94.3392H343.182V0H361.045V25.7462C361.045 27.2719 361.024 28.7976 360.981 30.3233C360.939 31.849 360.875 33.3535 360.791 34.8368C360.748 36.3201 360.664 37.8035 360.536 39.2868H360.791Z" fill="#1E1E1E"/>
<path d="M4.63538 38.0313C5.65957 36.1594 6.88684 34.7909 8.31719 33.9256C9.76519 33.0427 11.5929 32.6012 13.8002 32.6012C16.9081 32.6012 19.1949 33.4135 20.6605 35.0381C22.1439 36.6451 22.8855 39.1967 22.8855 42.6931V61.7909H18.0912V43.6202C18.0912 41.0244 17.6321 39.1526 16.7138 38.0048C15.8133 36.857 14.3034 36.2831 12.1844 36.2831C9.94178 36.2831 8.1406 37.06 6.78089 38.614C5.43884 40.1679 4.76781 42.2605 4.76781 44.8916V61.7909H0V22.4829H4.76781V32.7072C4.76781 33.4135 4.75016 34.164 4.71484 34.9587C4.67952 35.7356 4.6442 36.4155 4.60889 36.9982C4.59123 37.5633 4.57357 37.9076 4.55591 38.0313H4.63538Z" fill="#1E1E1E"/>
<path d="M40.0242 61.579C38.4703 62.0028 36.8633 62.2147 35.2034 62.2147C33.2963 62.2147 31.866 61.6761 30.9124 60.5989C29.9588 59.5041 29.482 57.8795 29.482 55.7251V36.6009H26.1711V33.131H29.6675L31.0713 26.7209H34.2499V33.131H39.5474V36.6009H34.2499V54.6921C34.2499 56.0695 34.4706 57.0407 34.9121 57.6058C35.3712 58.1532 36.157 58.4269 37.2695 58.4269C37.8699 58.4269 38.7881 58.3033 40.0242 58.0561V61.579Z" fill="#1E1E1E"/>
<path d="M54.0373 61.579C52.4834 62.0028 50.8765 62.2147 49.2166 62.2147C47.3094 62.2147 45.8791 61.6761 44.9255 60.5989C43.972 59.5041 43.4952 57.8795 43.4952 55.7251V36.6009H40.1842V33.131H43.6806L45.0845 26.7209H48.263V33.131H53.5606V36.6009H48.263V54.6921C48.263 56.0695 48.4837 57.0407 48.9252 57.6058C49.3843 58.1532 50.1701 58.4269 51.2826 58.4269C51.883 58.4269 52.8012 58.3033 54.0373 58.0561V61.579Z" fill="#1E1E1E"/>
<path d="M81.2679 47.3285C81.2679 52.3259 80.385 56.0783 78.6191 58.5858C76.8709 61.0757 74.2398 62.3206 70.7258 62.3206C66.3111 62.3206 63.3445 60.6607 61.8258 57.3409H61.6934C61.764 57.4645 61.7994 58.9655 61.7994 61.8438V73.0482H57.0315V38.9848C57.0315 37.5192 57.0139 36.3007 56.9786 35.3295C56.9609 34.3406 56.9256 33.6078 56.8726 33.131H61.4815C61.4992 33.2016 61.5256 33.546 61.561 34.164C61.6139 34.7821 61.6581 35.4531 61.6934 36.1771C61.7287 36.8834 61.7464 37.4044 61.7464 37.7399H61.8523C62.6999 35.974 63.8213 34.685 65.2163 33.8727C66.6113 33.0427 68.4478 32.6277 70.7258 32.6277C74.2575 32.6277 76.8974 33.8109 78.6456 36.1771C80.3938 38.5434 81.2679 42.2605 81.2679 47.3285ZM76.2617 47.4344C76.2617 43.4436 75.7231 40.5917 74.646 38.8789C73.5688 37.166 71.8559 36.3095 69.5073 36.3095C66.8939 36.3095 64.9514 37.219 63.68 39.0378C62.4262 40.839 61.7994 43.7615 61.7994 47.8053C61.7994 51.5665 62.3997 54.3389 63.6005 56.1225C64.8013 57.906 66.7526 58.7977 69.4543 58.7977C71.8206 58.7977 73.5423 57.9325 74.6195 56.2019C75.7143 54.4537 76.2617 51.5312 76.2617 47.4344Z" fill="#1E1E1E"/>
<path d="M107.651 53.871C107.651 56.5728 106.627 58.6565 104.578 60.1221C102.548 61.5878 99.6957 62.3206 96.0227 62.3206C92.4557 62.3206 89.701 61.7379 87.7585 60.5724C85.8337 59.3893 84.58 57.5528 83.9972 55.0629L88.2088 54.2418C88.615 55.7781 89.4537 56.9083 90.7252 57.6323C91.9966 58.3386 93.7624 58.6918 96.0227 58.6918C98.442 58.6918 100.208 58.321 101.32 57.5793C102.45 56.8376 103.016 55.7251 103.016 54.2418C103.016 53.1117 102.627 52.1934 101.85 51.4871C101.073 50.7807 99.8193 50.198 98.0888 49.7389C96.0404 49.1915 94.407 48.7412 93.1885 48.388C91.9877 48.0348 91.0607 47.7346 90.4073 47.4874C89.7539 47.2225 89.233 46.9753 88.8445 46.7458C87.6791 46.0747 86.7696 45.2536 86.1163 44.2824C85.4629 43.3112 85.1362 42.1192 85.1362 40.7065C85.1362 38.0931 86.0633 36.1065 87.9174 34.7468C89.7893 33.3694 92.5087 32.6807 96.0757 32.6807C99.2366 32.6807 101.744 33.237 103.598 34.3494C105.47 35.4619 106.653 37.2454 107.148 39.7L102.857 40.2297C102.592 38.9583 101.877 37.9871 100.711 37.3161C99.5633 36.6274 98.0182 36.2831 96.0757 36.2831C93.9214 36.2831 92.3321 36.6097 91.3079 37.2631C90.2837 37.9165 89.7716 38.9054 89.7716 40.2297C89.7716 41.201 90.063 42.0044 90.6457 42.6401C91.2284 43.2582 92.3409 43.7703 93.9832 44.1764C96.1905 44.7062 98.2919 45.2889 100.287 45.9246C102.283 46.5427 103.713 47.1607 104.578 47.7788C105.585 48.5028 106.344 49.3592 106.856 50.3481C107.386 51.3193 107.651 52.4936 107.651 53.871Z" fill="#1E1E1E"/>
<path d="M118.644 33.131V38.614H113.479V33.131H118.644ZM118.644 56.3079V61.7909H113.479V56.3079H118.644Z" fill="#1E1E1E"/>
<path d="M137.611 22.4829L126.83 62.3206H122.539L133.426 22.4829H137.611Z" fill="#1E1E1E"/>
<path d="M151.624 22.4829L140.843 62.3206H136.552L147.439 22.4829H151.624Z" fill="#1E1E1E"/>
<path d="M118.644 33.131V38.614H113.479V33.131H118.644ZM118.644 56.3079V61.7909H113.479V56.3079H118.644Z" fill="#1E1E1E"/>
<path d="M137.611 22.4829L126.83 62.3206H122.539L133.426 22.4829H137.611Z" fill="#1E1E1E"/>
<path d="M151.624 22.4829L140.843 62.3206H136.552L147.439 22.4829H151.624Z" fill="#1E1E1E"/>
</svg>
