<svg width="256" height="121" viewBox="0 0 256 121" fill="none" xmlns="http://www.w3.org/2000/svg">
<path d="M21.2317 120.271C14.5583 120.271 9.35132 118.464 5.61079 114.851C1.87026 111.196 0 106.074 0 99.4853C0 92.3443 2.31658 86.9248 6.94973 83.2267C11.6254 79.5287 18.3838 77.5947 27.2251 77.4247L42.0809 77.1696V73.6629C42.0809 69.1573 41.2946 65.8205 39.7219 63.6527C38.1491 61.4424 35.5775 60.3373 32.007 60.3373C28.6915 60.3373 26.2475 61.1024 24.6747 62.6326C23.1445 64.1203 22.1881 66.6069 21.8056 70.0924L3.12419 69.1998C5.46202 55.5553 15.3447 48.7331 32.7721 48.7331C41.4859 48.7331 48.2018 50.8797 52.92 55.1728C57.6381 59.4659 59.9972 65.5655 59.9972 73.4716V98.5927C59.9972 102.461 60.4223 105.139 61.2724 106.626C62.165 108.072 63.6315 108.794 65.6718 108.794C67.032 108.794 68.3496 108.667 69.6248 108.412V118.103C67.4145 118.655 65.523 119.059 63.9503 119.314C62.3775 119.612 60.4435 119.761 58.1482 119.761C53.6426 119.761 50.3058 118.655 48.138 116.445C46.0127 114.235 44.7376 110.983 44.3125 106.69H43.9299C41.4221 111.196 38.2766 114.596 34.4936 116.891C30.7106 119.144 26.29 120.271 21.2317 120.271ZM42.0809 87.0523L32.8996 87.1798C28.6915 87.3923 25.7374 87.8386 24.0371 88.5187C22.2944 89.2839 20.9555 90.4315 20.0203 91.9617C19.1277 93.4919 18.6814 95.5322 18.6814 98.0826C18.6814 101.356 19.4252 103.8 20.9129 105.415C22.4432 106.988 24.4622 107.774 26.9701 107.774C29.7754 107.774 32.3471 107.009 34.6849 105.479C36.9802 103.948 38.7867 101.844 40.1044 99.1665C41.4221 96.4461 42.0809 93.577 42.0809 90.559V87.0523Z" fill="#1E1E1E"/>
<path d="M119.232 105.287C116.852 110.516 113.812 114.32 110.114 116.7C106.459 119.081 102.102 120.271 97.0437 120.271C89.7327 120.271 84.1219 118.039 80.2114 113.576C76.3008 109.07 74.3455 102.482 74.3455 93.8107V50.0083H92.2618V88.71C92.2618 94.7459 93.282 99.294 95.3222 102.354C97.3625 105.372 100.423 106.881 104.504 106.881C108.839 106.881 112.325 105.032 114.96 101.334C117.638 97.5938 118.977 92.8118 118.977 86.9885V50.0083H136.893V103.566C136.893 106.499 136.936 109.262 137.021 111.855C137.106 114.405 137.233 116.785 137.403 118.996H120.316C120.061 115.935 119.869 113.257 119.742 110.962C119.614 108.667 119.551 106.775 119.551 105.287H119.232Z" fill="#1E1E1E"/>
<path d="M185.352 117.975C181.017 119.421 175.98 120.143 170.242 120.143C164.971 120.143 160.912 118.719 158.064 115.871C155.216 112.981 153.792 108.624 153.792 102.801V62.1225H145.057V50.0083H154.684L160.295 33.8135H171.517V50.0083H184.587V62.1225H171.517V97.9551C171.517 101.313 172.154 103.8 173.43 105.415C174.705 106.988 176.681 107.774 179.359 107.774C180.634 107.774 182.632 107.476 185.352 106.881V117.975Z" fill="#1E1E1E"/>
<path d="M211.114 63.7803C213.537 58.5095 216.576 54.684 220.231 52.3036C223.887 49.9233 228.244 48.7331 233.302 48.7331C240.613 48.7331 246.224 50.9859 250.134 55.4916C254.045 59.9972 256 66.5856 256 75.2569V118.996H238.147V80.3576C238.147 74.2792 237.127 69.7311 235.087 66.7132C233.047 63.6952 229.965 62.1863 225.842 62.1863C221.506 62.1863 218 64.0565 215.322 67.7971C212.686 71.4951 211.369 76.2558 211.369 82.0791V118.996H193.452V24.3772H211.369V50.1996C211.369 51.7298 211.347 53.26 211.305 54.7902C211.262 56.3205 211.199 57.8294 211.114 59.3171C211.071 60.8048 210.986 62.2925 210.859 63.7803H211.114Z" fill="#1E1E1E"/>
<path d="M11.6866 15.5944C12.7138 13.717 13.9447 12.3444 15.3793 11.4766C16.8316 10.5911 18.6647 10.1483 20.8785 10.1483C23.9956 10.1483 26.2892 10.963 27.7592 12.5924C29.2469 14.2041 29.9907 16.7633 29.9907 20.27V39.4243H25.1823V21.1999C25.1823 18.5964 24.7218 16.719 23.8008 15.5678C22.8976 14.4166 21.3833 13.841 19.258 13.841C17.0087 13.841 15.2022 14.6203 13.8385 16.1788C12.4924 17.7374 11.8194 19.8361 11.8194 22.475V39.4243H7.03751V0H11.8194V10.2546C11.8194 10.963 11.8017 11.7157 11.7663 12.5127C11.7309 13.292 11.6955 13.9738 11.66 14.5583C11.6423 15.125 11.6246 15.4704 11.6069 15.5944H11.6866Z" fill="#1E1E1E"/>
<path d="M47.1802 39.2118C45.6216 39.6368 44.0099 39.8494 42.3451 39.8494C40.4323 39.8494 38.9978 39.3092 38.0414 38.2288C37.085 37.1308 36.6068 35.5014 36.6068 33.3406V14.1598H33.286V10.6796H36.7928L38.2008 4.2506H41.3887V10.6796H46.702V14.1598H41.3887V32.3046C41.3887 33.686 41.6101 34.6601 42.0529 35.2268C42.5134 35.7759 43.3015 36.0504 44.4173 36.0504C45.0194 36.0504 45.9404 35.9264 47.1802 35.6785V39.2118Z" fill="#1E1E1E"/>
<path d="M61.2348 39.2118C59.6762 39.6368 58.0645 39.8494 56.3997 39.8494C54.4869 39.8494 53.0524 39.3092 52.096 38.2288C51.1396 37.1308 50.6614 35.5014 50.6614 33.3406V14.1598H47.3406V10.6796H50.8474L52.2554 4.2506H55.4433V10.6796H60.7566V14.1598H55.4433V32.3046C55.4433 33.686 55.6647 34.6601 56.1075 35.2268C56.568 35.7759 57.3561 36.0504 58.4719 36.0504C59.074 36.0504 59.995 35.9264 61.2348 35.6785V39.2118Z" fill="#1E1E1E"/>
<path d="M88.5459 24.9191C88.5459 29.9313 87.6604 33.6949 85.8893 36.2098C84.1359 38.707 81.497 39.9556 77.9726 39.9556C73.5449 39.9556 70.5694 38.2908 69.0463 34.9612H68.9135C68.9843 35.0852 69.0197 36.5906 69.0197 39.4774V50.715H64.2378V16.5508C64.2378 15.0808 64.2201 13.8587 64.1847 12.8846C64.167 11.8928 64.1316 11.1578 64.0784 10.6796H68.701C68.7187 10.7505 68.7452 11.0958 68.7806 11.7157C68.8338 12.3356 68.8781 13.0086 68.9135 13.7347C68.9489 14.4432 68.9666 14.9657 68.9666 15.3022H69.0729C69.923 13.5311 71.0476 12.2382 72.4468 11.4235C73.8459 10.5911 75.6879 10.1749 77.9726 10.1749C81.5147 10.1749 84.1625 11.3615 85.9159 13.7347C87.6693 16.108 88.5459 19.8361 88.5459 24.9191ZM83.5249 25.0254C83.5249 21.0228 82.9847 18.1625 81.9044 16.4445C80.824 14.7266 79.1061 13.8676 76.7505 13.8676C74.1293 13.8676 72.1811 14.7797 70.9059 16.6039C69.6485 18.4104 69.0197 21.3416 69.0197 25.3973C69.0197 29.1697 69.6219 31.9503 70.8262 33.7391C72.0306 35.5279 73.9876 36.4223 76.6974 36.4223C79.0706 36.4223 80.7974 35.5545 81.8778 33.8188C82.9759 32.0655 83.5249 29.1343 83.5249 25.0254Z" fill="#1E1E1E"/>
<path d="M115.007 31.481C115.007 34.1908 113.98 36.2806 111.925 37.7506C109.889 39.2206 107.028 39.9556 103.344 39.9556C99.7668 39.9556 97.0039 39.3712 95.0557 38.2023C93.1253 37.0156 91.8678 35.1737 91.2833 32.6765L95.5074 31.8529C95.9147 33.3938 96.756 34.5273 98.0312 35.2534C99.3063 35.9618 101.077 36.3161 103.344 36.3161C105.771 36.3161 107.542 35.9441 108.658 35.2003C109.791 34.4564 110.358 33.3406 110.358 31.8529C110.358 30.7194 109.968 29.7985 109.189 29.09C108.41 28.3816 107.152 27.7971 105.417 27.3367C103.362 26.7876 101.724 26.336 100.502 25.9818C99.2975 25.6276 98.3677 25.3265 97.7124 25.0785C97.0571 24.8129 96.5346 24.5649 96.145 24.3347C94.976 23.6617 94.0639 22.8381 93.4086 21.864C92.7533 20.8899 92.4257 19.6944 92.4257 18.2776C92.4257 15.6564 93.3555 13.6639 95.2151 12.3002C97.0925 10.9187 99.8199 10.228 103.398 10.228C106.568 10.228 109.083 10.7859 110.942 11.9017C112.82 13.0175 114.006 14.8063 114.502 17.2681L110.198 17.7994C109.933 16.5242 109.216 15.5501 108.047 14.8771C106.895 14.1864 105.346 13.841 103.398 13.841C101.237 13.841 99.6428 14.1687 98.6156 14.824C97.5884 15.4793 97.0748 16.4711 97.0748 17.7994C97.0748 18.7735 97.367 19.5793 97.9515 20.2169C98.5359 20.8368 99.6517 21.3504 101.299 21.7578C103.513 22.2891 105.62 22.8735 107.622 23.5111C109.623 24.131 111.057 24.7509 111.925 25.3708C112.935 26.0969 113.696 26.9559 114.21 27.9477C114.741 28.9218 115.007 30.0996 115.007 31.481Z" fill="#1E1E1E"/>
<path d="M126.033 10.6796V16.1788H120.853V10.6796H126.033ZM126.033 33.9251V39.4243H120.853V33.9251H126.033Z" fill="#1E1E1E"/>
<path d="M145.056 0L134.243 39.9556H129.939L140.858 0H145.056Z" fill="#1E1E1E"/>
<path d="M159.11 0L148.298 39.9556H143.994L154.913 0H159.11Z" fill="#1E1E1E"/>
</svg>
