<svg width="210" height="140" viewBox="0 0 210 140" fill="none" xmlns="http://www.w3.org/2000/svg">
<rect width="210" height="140" fill="#4539CD"/>
<g clip-path="url(#clip0_3_18)">
<path d="M22.3568 80L20.3932 56.4364H28.8614L29.1682 70.7955H29.3523L34.7523 56.4364H42.975L43.7114 70.6727H43.8955L48.8659 56.4364H57.3341L47.5159 80H38.3727L37.1455 67.3591H36.9L31.5 80H22.3568ZM66.7227 66.7455L64.5136 80H56.0455L61.2614 48.5818H69.4227L67.3977 60.9159H67.6432C68.4102 59.4125 69.4841 58.2415 70.8648 57.4028C72.2455 56.554 73.8102 56.1295 75.5591 56.1295C77.2159 56.1295 78.5966 56.508 79.7011 57.2648C80.8057 58.0216 81.5881 59.0648 82.0483 60.3943C82.5085 61.7239 82.5955 63.2477 82.3091 64.9659L79.7932 80H71.325L73.5341 66.7455C73.7182 65.5795 73.5699 64.6642 73.0892 63.9994C72.6187 63.3347 71.8466 63.0023 70.7727 63.0023C70.0773 63.0023 69.4432 63.1557 68.8705 63.4625C68.308 63.7591 67.8375 64.1886 67.4591 64.7511C67.0909 65.3034 66.8455 65.9682 66.7227 66.7455ZM83.9122 80L87.8395 56.4364H96.3077L92.3804 80H83.9122ZM92.4418 53.9818C91.2963 53.9818 90.3707 53.6034 89.6651 52.8466C88.9594 52.0795 88.6986 51.1693 88.8827 50.1159C89.0668 49.042 89.6293 48.1318 90.5702 47.3852C91.5111 46.6284 92.5543 46.25 93.6997 46.25C94.8554 46.25 95.7759 46.6284 96.4611 47.3852C97.1463 48.1318 97.402 49.042 97.2281 50.1159C97.0645 51.1693 96.5122 52.0795 95.5713 52.8466C94.6406 53.6034 93.5974 53.9818 92.4418 53.9818ZM97.0018 80L97.7382 75.3364L110.072 63.0023L110.134 62.8795H100.193L101.297 56.4364H121.24L120.443 61.5909L109.09 73.4341L109.029 73.5568H118.786L117.743 80H97.0018ZM140.459 56.4364L139.416 62.5727H123.645L124.688 56.4364H140.459ZM123.737 80L127.787 55.7614C128.104 53.8182 128.713 52.2074 129.613 50.929C130.523 49.6506 131.663 48.6943 133.034 48.0602C134.414 47.4261 135.959 47.1091 137.667 47.1091C138.751 47.1091 139.789 47.1909 140.781 47.3545C141.773 47.5182 142.494 47.6614 142.944 47.7841L140.735 53.8591C140.438 53.767 140.096 53.6955 139.707 53.6443C139.318 53.583 138.966 53.5523 138.649 53.5523C137.861 53.5523 137.299 53.721 136.961 54.0585C136.634 54.396 136.419 54.8409 136.317 55.3932L132.205 80H123.737ZM139.768 80L143.696 56.4364H152.164L148.237 80H139.768ZM148.298 53.9818C147.153 53.9818 146.227 53.6034 145.521 52.8466C144.816 52.0795 144.555 51.1693 144.739 50.1159C144.923 49.042 145.486 48.1318 146.426 47.3852C147.367 46.6284 148.411 46.25 149.556 46.25C150.712 46.25 151.632 46.6284 152.317 47.3852C153.003 48.1318 153.258 49.042 153.084 50.1159C152.921 51.1693 152.368 52.0795 151.428 52.8466C150.497 53.6034 149.454 53.9818 148.298 53.9818ZM166.235 48.5818L161.019 80H152.551L157.767 48.5818H166.235ZM176.564 80.4295C174.048 80.4295 171.961 79.9489 170.305 78.9875C168.648 78.0159 167.482 76.625 166.807 74.8148C166.132 72.9943 166.009 70.8159 166.439 68.2795C166.848 65.8455 167.691 63.7182 168.97 61.8977C170.259 60.0773 171.88 58.6608 173.833 57.6483C175.797 56.6358 177.995 56.1295 180.43 56.1295C182.209 56.1295 183.769 56.4057 185.109 56.958C186.459 57.5102 187.558 58.3131 188.407 59.3665C189.256 60.4199 189.828 61.6932 190.125 63.1864C190.432 64.6693 190.432 66.3466 190.125 68.2182L189.818 70.1818H168.77L169.507 65.5182H182.761C182.864 64.8432 182.797 64.25 182.562 63.7386C182.337 63.217 181.974 62.8131 181.473 62.5267C180.982 62.2301 180.389 62.0818 179.693 62.0818C178.998 62.0818 178.343 62.2301 177.73 62.5267C177.126 62.8233 176.61 63.2375 176.18 63.7693C175.761 64.3011 175.48 64.925 175.336 65.6409L174.416 70.55C174.293 71.3068 174.339 71.9818 174.554 72.575C174.769 73.1682 175.142 73.6335 175.674 73.971C176.206 74.3085 176.891 74.4773 177.73 74.4773C178.302 74.4773 178.844 74.4006 179.356 74.2472C179.877 74.0835 180.338 73.8483 180.736 73.5415C181.145 73.2244 181.473 72.8409 181.718 72.3909H189.45C188.898 74.0273 188.023 75.4489 186.827 76.6557C185.64 77.8523 184.178 78.783 182.439 79.4477C180.711 80.1023 178.752 80.4295 176.564 80.4295Z" fill="white"/>
<path d="M190.2 83.8H22.6645L23.1762 89.8H169.8L166.2 92.2L169.2 97L190.2 83.8Z" fill="white"/>
</g>
<defs>
<clipPath id="clip0_3_18">
<rect width="174" height="54" fill="white" transform="translate(18 43)"/>
</clipPath>
</defs>
</svg>
