<svg width="145" height="45" viewBox="0 0 145 45" fill="none" xmlns="http://www.w3.org/2000/svg">
<g clip-path="url(#clip0_59_177)">
<path d="M3.63068 30.5L1.99432 10.8636H9.05114L9.30682 22.8295H9.46023L13.9602 10.8636H20.8125L21.4261 22.7273H21.5795L25.7216 10.8636H32.7784L24.5966 30.5H16.9773L15.9545 19.9659H15.75L11.25 30.5H3.63068ZM40.6023 19.4545L38.7614 30.5H31.7045L36.0511 4.31818H42.8523L41.1648 14.5966H41.3693C42.0085 13.3437 42.9034 12.3679 44.054 11.669C45.2045 10.9616 46.5085 10.608 47.9659 10.608C49.3466 10.608 50.4972 10.9233 51.4176 11.554C52.3381 12.1847 52.9901 13.054 53.3736 14.1619C53.7571 15.2699 53.8295 16.5398 53.5909 17.9716L51.4943 30.5H44.4375L46.2784 19.4545C46.4318 18.483 46.3082 17.7202 45.9077 17.1662C45.5156 16.6122 44.8722 16.3352 43.9773 16.3352C43.3977 16.3352 42.8693 16.4631 42.392 16.7188C41.9233 16.9659 41.5312 17.3239 41.2159 17.7926C40.9091 18.2528 40.7045 18.8068 40.6023 19.4545ZM54.9268 30.5L58.1996 10.8636H65.2564L61.9837 30.5H54.9268ZM62.0348 8.81818C61.0803 8.81818 60.3089 8.50284 59.7209 7.87216C59.1328 7.23295 58.9155 6.47443 59.0689 5.59659C59.2223 4.7017 59.6911 3.94318 60.4751 3.32102C61.2592 2.69034 62.1286 2.375 63.0831 2.375C64.0462 2.375 64.8132 2.69034 65.3842 3.32102C65.9553 3.94318 66.1683 4.7017 66.0234 5.59659C65.8871 6.47443 65.4268 7.23295 64.6428 7.87216C63.8672 8.50284 62.9979 8.81818 62.0348 8.81818ZM65.8349 30.5L66.4485 26.6136L76.7269 16.3352L76.7781 16.233H68.494L69.4144 10.8636H86.0337L85.369 15.1591L75.9087 25.0284L75.8576 25.1307H83.9883L83.119 30.5H65.8349ZM102.049 10.8636L101.18 15.9773H88.0376L88.907 10.8636H102.049ZM88.1143 30.5L91.4893 10.3011C91.7536 8.68182 92.2607 7.33949 93.0107 6.27415C93.7692 5.20881 94.7195 4.41193 95.8615 3.88352C97.0121 3.35511 98.299 3.09091 99.7223 3.09091C100.626 3.09091 101.491 3.15909 102.317 3.29545C103.144 3.43182 103.745 3.55114 104.12 3.65341L102.279 8.71591C102.032 8.6392 101.746 8.57954 101.423 8.53693C101.099 8.48579 100.805 8.46023 100.54 8.46023C99.8842 8.46023 99.4155 8.60085 99.1342 8.8821C98.8615 9.16335 98.6825 9.53409 98.5973 9.99432L95.1712 30.5H88.1143ZM101.474 30.5L104.746 10.8636H111.803L108.531 30.5H101.474ZM108.582 8.81818C107.627 8.81818 106.856 8.50284 106.268 7.87216C105.68 7.23295 105.462 6.47443 105.616 5.59659C105.769 4.7017 106.238 3.94318 107.022 3.32102C107.806 2.69034 108.675 2.375 109.63 2.375C110.593 2.375 111.36 2.69034 111.931 3.32102C112.502 3.94318 112.715 4.7017 112.57 5.59659C112.434 6.47443 111.974 7.23295 111.19 7.87216C110.414 8.50284 109.545 8.81818 108.582 8.81818ZM123.529 4.31818L119.183 30.5H112.126L116.473 4.31818H123.529ZM132.136 30.858C130.04 30.858 128.301 30.4574 126.92 29.6562C125.54 28.8466 124.568 27.6875 124.006 26.179C123.443 24.6619 123.341 22.8466 123.699 20.733C124.04 18.7045 124.743 16.9318 125.808 15.4148C126.882 13.8977 128.233 12.7173 129.861 11.8736C131.497 11.0298 133.33 10.608 135.358 10.608C136.841 10.608 138.141 10.8381 139.257 11.2983C140.382 11.7585 141.298 12.4276 142.006 13.3054C142.713 14.1832 143.19 15.2443 143.438 16.4886C143.693 17.7244 143.693 19.1222 143.438 20.6818L143.182 22.3182H125.642L126.256 18.4318H137.301C137.386 17.8693 137.331 17.375 137.135 16.9489C136.947 16.5142 136.645 16.1776 136.227 15.9389C135.818 15.6918 135.324 15.5682 134.744 15.5682C134.165 15.5682 133.619 15.6918 133.108 15.9389C132.605 16.1861 132.175 16.5312 131.817 16.9744C131.467 17.4176 131.233 17.9375 131.114 18.5341L130.347 22.625C130.244 23.2557 130.283 23.8182 130.462 24.3125C130.641 24.8068 130.952 25.1946 131.395 25.4759C131.838 25.7571 132.409 25.8977 133.108 25.8977C133.585 25.8977 134.037 25.8338 134.463 25.706C134.898 25.5696 135.281 25.3736 135.614 25.1179C135.955 24.8537 136.227 24.5341 136.432 24.1591H142.875C142.415 25.5227 141.686 26.7074 140.689 27.7131C139.7 28.7102 138.482 29.4858 137.033 30.0398C135.592 30.5852 133.96 30.858 132.136 30.858Z" fill="white"/>
<path d="M143.5 34H3.88705L4.31351 39H126.5L123.5 41L126 45L143.5 34Z" fill="white"/>
</g>
<defs>
<clipPath id="clip0_59_177">
<rect width="145" height="45" fill="white"/>
</clipPath>
</defs>
</svg>
