<svg width="128" height="128" viewBox="0 0 128 128" fill="none" xmlns="http://www.w3.org/2000/svg">
<g clip-path="url(#clip0_3_19)">
<rect width="128" height="128" rx="64" fill="#4539CD"/>
<path d="M8.90455 70.5L7.59545 54.7909H13.2409L13.4455 64.3636H13.5682L17.1682 54.7909H22.65L23.1409 64.2818H23.2636L26.5773 54.7909H32.2227L25.6773 70.5H19.5818L18.7636 62.0727H18.6L15 70.5H8.90455ZM38.4818 61.6636L37.0091 70.5H31.3636L34.8409 49.5545H40.2818L38.9318 57.7773H39.0955C39.6068 56.775 40.3227 55.9943 41.2432 55.4352C42.1636 54.8693 43.2068 54.5864 44.3727 54.5864C45.4773 54.5864 46.3977 54.8386 47.1341 55.3432C47.8705 55.8477 48.392 56.5432 48.6989 57.4295C49.0057 58.3159 49.0636 59.3318 48.8727 60.4773L47.1955 70.5H41.55L43.0227 61.6636C43.1455 60.8864 43.0466 60.2761 42.7261 59.833C42.4125 59.3898 41.8977 59.1682 41.1818 59.1682C40.7182 59.1682 40.2955 59.2705 39.9136 59.475C39.5386 59.6727 39.225 59.9591 38.9727 60.3341C38.7273 60.7023 38.5636 61.1455 38.4818 61.6636ZM49.9415 70.5L52.5597 54.7909H58.2051L55.5869 70.5H49.9415ZM55.6278 53.1545C54.8642 53.1545 54.2472 52.9023 53.7767 52.3977C53.3063 51.8864 53.1324 51.2795 53.2551 50.5773C53.3778 49.8614 53.7528 49.2545 54.3801 48.7568C55.0074 48.2523 55.7028 48 56.4665 48C57.2369 48 57.8506 48.2523 58.3074 48.7568C58.7642 49.2545 58.9347 49.8614 58.8188 50.5773C58.7097 51.2795 58.3415 51.8864 57.7142 52.3977C57.0938 52.9023 56.3983 53.1545 55.6278 53.1545ZM58.6679 70.5L59.1588 67.3909L67.3815 59.1682L67.4224 59.0864H60.7952L61.5315 54.7909H74.827L74.2952 58.2273L66.727 66.1227L66.6861 66.2045H73.1906L72.4952 70.5H58.6679ZM87.6392 54.7909L86.9438 58.8818H76.4301L77.1256 54.7909H87.6392ZM76.4915 70.5L79.1915 54.3409C79.4028 53.0455 79.8085 51.9716 80.4085 51.1193C81.0153 50.267 81.7756 49.6295 82.6892 49.2068C83.6097 48.7841 84.6392 48.5727 85.7778 48.5727C86.5006 48.5727 87.1926 48.6273 87.854 48.7364C88.5153 48.8455 88.996 48.9409 89.296 49.0227L87.8233 53.0727C87.6256 53.0114 87.3972 52.9636 87.1381 52.9295C86.879 52.8886 86.6438 52.8682 86.4324 52.8682C85.9074 52.8682 85.5324 52.9807 85.3074 53.2057C85.0892 53.4307 84.946 53.7273 84.8778 54.0955L82.1369 70.5H76.4915ZM87.179 70.5L89.7972 54.7909H95.4426L92.8244 70.5H87.179ZM92.8653 53.1545C92.1017 53.1545 91.4847 52.9023 91.0142 52.3977C90.5438 51.8864 90.3699 51.2795 90.4926 50.5773C90.6153 49.8614 90.9903 49.2545 91.6176 48.7568C92.2449 48.2523 92.9403 48 93.704 48C94.4744 48 95.0881 48.2523 95.5449 48.7568C96.0017 49.2545 96.1722 49.8614 96.0563 50.5773C95.9472 51.2795 95.579 51.8864 94.9517 52.3977C94.3313 52.9023 93.6358 53.1545 92.8653 53.1545ZM104.824 49.5545L101.346 70.5H95.7009L99.1781 49.5545H104.824ZM111.709 70.7864C110.032 70.7864 108.641 70.4659 107.536 69.825C106.432 69.1773 105.655 68.25 105.205 67.0432C104.755 65.8295 104.673 64.3773 104.959 62.6864C105.232 61.0636 105.794 59.6455 106.647 58.4318C107.506 57.2182 108.586 56.2739 109.889 55.5989C111.198 54.9239 112.664 54.5864 114.286 54.5864C115.473 54.5864 116.513 54.7705 117.406 55.1386C118.306 55.5068 119.039 56.042 119.605 56.7443C120.17 57.4466 120.552 58.2955 120.75 59.2909C120.955 60.2795 120.955 61.3977 120.75 62.6455L120.545 63.9545H106.514L107.005 60.8455H115.841C115.909 60.3955 115.865 60 115.708 59.6591C115.558 59.3114 115.316 59.042 114.982 58.8511C114.655 58.6534 114.259 58.5545 113.795 58.5545C113.332 58.5545 112.895 58.6534 112.486 58.8511C112.084 59.0489 111.74 59.325 111.453 59.6795C111.174 60.0341 110.986 60.45 110.891 60.9273L110.277 64.2C110.195 64.7045 110.226 65.1545 110.369 65.55C110.513 65.9455 110.761 66.2557 111.116 66.4807C111.47 66.7057 111.927 66.8182 112.486 66.8182C112.868 66.8182 113.23 66.767 113.57 66.6648C113.918 66.5557 114.225 66.3989 114.491 66.1943C114.764 65.983 114.982 65.7273 115.145 65.4273H120.3C119.932 66.5182 119.349 67.4659 118.551 68.2705C117.76 69.0682 116.785 69.6886 115.626 70.1318C114.474 70.5682 113.168 70.7864 111.709 70.7864Z" fill="white"/>
<path d="M120.8 73.2H9.10965L9.45082 77.2H107.2L104.8 78.8L106.8 82L120.8 73.2Z" fill="white"/>
</g>
<defs>
<clipPath id="clip0_3_19">
<rect width="128" height="128" rx="64" fill="white"/>
</clipPath>
</defs>
</svg>
