<svg width="145" height="44" viewBox="0 0 145 44" fill="none" xmlns="http://www.w3.org/2000/svg">
<path d="M3.63068 35L1.99432 15.3636H9.05114L9.30682 27.3295H9.46023L13.9602 15.3636H20.8125L21.4261 27.2273H21.5795L25.7216 15.3636H32.7784L24.5966 35H16.9773L15.9545 24.4659H15.75L11.25 35H3.63068ZM40.6023 23.9545L38.7614 35H31.7045L36.0511 8.81818H42.8523L41.1648 19.0966H41.3693C42.0085 17.8437 42.9034 16.8679 44.054 16.169C45.2045 15.4616 46.5085 15.108 47.9659 15.108C49.3466 15.108 50.4972 15.4233 51.4176 16.054C52.3381 16.6847 52.9901 17.554 53.3736 18.6619C53.7571 19.7699 53.8295 21.0398 53.5909 22.4716L51.4943 35H44.4375L46.2784 23.9545C46.4318 22.983 46.3082 22.2202 45.9077 21.6662C45.5156 21.1122 44.8722 20.8352 43.9773 20.8352C43.3977 20.8352 42.8693 20.9631 42.392 21.2188C41.9233 21.4659 41.5312 21.8239 41.2159 22.2926C40.9091 22.7528 40.7045 23.3068 40.6023 23.9545ZM54.9268 35L58.1996 15.3636H65.2564L61.9837 35H54.9268ZM62.0348 13.3182C61.0803 13.3182 60.3089 13.0028 59.7209 12.3722C59.1328 11.733 58.9155 10.9744 59.0689 10.0966C59.2223 9.2017 59.6911 8.44318 60.4751 7.82102C61.2592 7.19034 62.1286 6.875 63.0831 6.875C64.0462 6.875 64.8132 7.19034 65.3842 7.82102C65.9553 8.44318 66.1683 9.2017 66.0234 10.0966C65.8871 10.9744 65.4268 11.733 64.6428 12.3722C63.8672 13.0028 62.9979 13.3182 62.0348 13.3182ZM65.8349 35L66.4485 31.1136L76.7269 20.8352L76.7781 20.733H68.494L69.4144 15.3636H86.0337L85.369 19.6591L75.9087 29.5284L75.8576 29.6307H83.9883L83.119 35H65.8349ZM102.049 15.3636L101.18 20.4773H88.0376L88.907 15.3636H102.049ZM88.1143 35L91.4893 14.8011C91.7536 13.1818 92.2607 11.8395 93.0107 10.7741C93.7692 9.70881 94.7195 8.91193 95.8615 8.38352C97.0121 7.85511 98.299 7.59091 99.7223 7.59091C100.626 7.59091 101.491 7.65909 102.317 7.79545C103.144 7.93182 103.745 8.05114 104.12 8.15341L102.279 13.2159C102.032 13.1392 101.746 13.0795 101.423 13.0369C101.099 12.9858 100.805 12.9602 100.54 12.9602C99.8842 12.9602 99.4155 13.1009 99.1342 13.3821C98.8615 13.6634 98.6825 14.0341 98.5973 14.4943L95.1712 35H88.1143ZM101.474 35L104.746 15.3636H111.803L108.531 35H101.474ZM108.582 13.3182C107.627 13.3182 106.856 13.0028 106.268 12.3722C105.68 11.733 105.462 10.9744 105.616 10.0966C105.769 9.2017 106.238 8.44318 107.022 7.82102C107.806 7.19034 108.675 6.875 109.63 6.875C110.593 6.875 111.36 7.19034 111.931 7.82102C112.502 8.44318 112.715 9.2017 112.57 10.0966C112.434 10.9744 111.974 11.733 111.19 12.3722C110.414 13.0028 109.545 13.3182 108.582 13.3182ZM123.529 8.81818L119.183 35H112.126L116.473 8.81818H123.529ZM132.136 35.358C130.04 35.358 128.301 34.9574 126.92 34.1562C125.54 33.3466 124.568 32.1875 124.006 30.679C123.443 29.1619 123.341 27.3466 123.699 25.233C124.04 23.2045 124.743 21.4318 125.808 19.9148C126.882 18.3977 128.233 17.2173 129.861 16.3736C131.497 15.5298 133.33 15.108 135.358 15.108C136.841 15.108 138.141 15.3381 139.257 15.7983C140.382 16.2585 141.298 16.9276 142.006 17.8054C142.713 18.6832 143.19 19.7443 143.438 20.9886C143.693 22.2244 143.693 23.6222 143.438 25.1818L143.182 26.8182H125.642L126.256 22.9318H137.301C137.386 22.3693 137.331 21.875 137.135 21.4489C136.947 21.0142 136.645 20.6776 136.227 20.4389C135.818 20.1918 135.324 20.0682 134.744 20.0682C134.165 20.0682 133.619 20.1918 133.108 20.4389C132.605 20.6861 132.175 21.0312 131.817 21.4744C131.467 21.9176 131.233 22.4375 131.114 23.0341L130.347 27.125C130.244 27.7557 130.283 28.3182 130.462 28.8125C130.641 29.3068 130.952 29.6946 131.395 29.9759C131.838 30.2571 132.409 30.3977 133.108 30.3977C133.585 30.3977 134.037 30.3338 134.463 30.206C134.898 30.0696 135.281 29.8736 135.614 29.6179C135.955 29.3537 136.227 29.0341 136.432 28.6591H142.875C142.415 30.0227 141.686 31.2074 140.689 32.2131C139.7 33.2102 138.482 33.9858 137.033 34.5398C135.592 35.0852 133.96 35.358 132.136 35.358Z" fill="white"/>
</svg>
